<svg xmlns="http://www.w3.org/2000/svg" version="1.1" width="512" height="512" x="0" y="0" viewBox="0 0 511 511.999"
     style="enable-background:new 0 0 512 512" xml:space="preserve" class=""><g><path xmlns="http://www.w3.org/2000/svg" d="m248.484375 80.160156h-102.242187l10.957031-58.207031c.761719-4.027344 4.285156-6.953125 8.386719-6.953125h82.898437c4.140625 0 7.5-3.359375 7.5-7.5s-3.359375-7.5-7.5-7.5h-82.898437c-11.308594 0-21.035157 8.066406-23.125 19.179688l-11.484376 60.980468h-122.976562c-4.140625 0-7.5 3.359375-7.5 7.5 0 4.144532 3.359375 7.5 7.5 7.5h8.835938l15.09375 362.222656c.292968 7.011719 3.601562 13.179688 8.652343 17.289063v21.8125c0 8.554687 6.957031 15.515625 15.515625 15.515625h144.289063c8.554687 0 15.515625-6.960938 15.515625-15.515625v-21.8125c5.046875-4.105469 8.359375-10.273437 8.648437-17.289063l15.09375-362.222656h8.839844c4.140625 0 7.5-3.355468 7.5-7.5 0-4.140625-3.359375-7.5-7.5-7.5zm-38.917969 376.601563c-.191406 4.582031-3.9375 8.175781-8.523437 8.175781h-8.671875c-4.144532 0-7.5 3.359375-7.5 7.5s3.355468 7.5 7.5 7.5h8.53125v16.546875c0 .285156-.230469.515625-.515625.515625h-144.289063c-.285156 0-.515625-.230469-.515625-.515625v-16.546875h104.726563c4.144531 0 7.5-3.359375 7.5-7.5s-3.355469-7.5-7.5-7.5h-104.867188c-4.589844 0-8.332031-3.59375-8.523437-8.175781l-13.074219-313.78125c9.660156-.796875 15.601562-3.140625 20.953125-5.253907 6.09375-2.40625 11.355469-4.488281 22.609375-4.488281 11.257812 0 16.519531 2.082031 22.613281 4.488281 6.5625 2.589844 14 5.527344 28.089844 5.535157h.039063.050781c14.074219-.007813 21.507812-2.945313 28.070312-5.535157 6.09375-2.40625 11.359375-4.488281 22.617188-4.488281 11.28125 0 16.558593 2.082031 22.664062 4.488281 5.382813 2.121094 11.355469 4.472657 21.085938 5.257813zm13.699219-328.773438c-7.105469-.636719-11.40625-2.324219-16.210937-4.21875-6.578126-2.589843-14.03125-5.53125-28.167969-5.53125-14.113281 0-21.558594 2.941407-28.128907 5.535157-4.152343 1.640624-7.921874 3.125-13.464843 3.90625l1.238281-6.566407c.765625-4.070312-1.914062-7.992187-5.984375-8.757812s-7.992187 1.914062-8.757813 5.984375l-1.820312 9.671875c-7.25-.617188-11.585938-2.320313-16.441406-4.238281-6.566406-2.59375-14.011719-5.535157-28.121094-5.535157s-21.554688 2.941407-28.121094 5.535157c-4.769531 1.882812-9.042968 3.5625-16.066406 4.207031l-1.367188-32.816407h192.78125zm0 0" fill="#000000"  class=""></path><path xmlns="http://www.w3.org/2000/svg" d="m105.511719 198.976562-13.886719-8.015624c-3.585938-2.074219-7.769531-2.621094-11.773438-1.550782-4.003906 1.074219-7.347656 3.640625-9.421874 7.230469l-8.015626 13.882813c-2.070312 3.589843-2.621093 7.769531-1.546874 11.773437 1.070312 4.003906 3.636718 7.347656 7.226562 9.421875l13.882812 8.015625c2.441407 1.40625 5.101563 2.074219 7.734376 2.074219 5.363281 0 10.589843-2.78125 13.460937-7.753906l8.019531-13.882813c4.277344-7.410156 1.726563-16.917969-5.679687-21.195313zm-7.3125 13.695313-8.015625 13.882813c-.144532.246093-.457032.332031-.707032.1875l-13.882812-8.015626c-.046875-.023437-.183594-.105468-.242188-.3125-.054687-.203124.027344-.34375.054688-.390624l8.015625-13.886719c.027344-.042969.105469-.183594.3125-.238281.050781-.015626.097656-.019532.140625-.019532.128906 0 .21875.050782.253906.070313l13.882813 8.015625c.246093.144531.328125.460937.1875.707031zm0 0" fill="#000000" class=""></path><path xmlns="http://www.w3.org/2000/svg" d="m146.460938 200.308594c1.074218 4.003906 3.640624 7.351562 7.230468 9.421875 2.390625 1.382812 5.042969 2.085937 7.734375 2.085937 1.347657 0 2.703125-.175781 4.039063-.535156l15.488281-4.148438c8.261719-2.214843 13.183594-10.738281 10.96875-19.003906l-4.148437-15.484375c-2.214844-8.265625-10.738282-13.1875-19.003907-10.972656l-15.484375 4.148437c-4.003906 1.074219-7.351562 3.640626-9.421875 7.230469-2.074219 3.589844-2.625 7.769531-1.550781 11.773438zm10.390624-19.757813c.109376-.1875.265626-.226562.316407-.242187l15.484375-4.148438c.042968-.011718.089844-.019531.132812-.019531.226563 0 .4375.152344.5.382813l4.148438 15.488281c.074218.273437-.089844.558593-.363282.632812l-15.488281 4.148438c-.050781.011719-.207031.054687-.390625-.054688-.183594-.105469-.226562-.261719-.238281-.3125l-4.152344-15.484375c-.011719-.050781-.054687-.207031.050781-.390625zm0 0" fill="#000000" class=""></path><path xmlns="http://www.w3.org/2000/svg" d="m168.765625 276.679688c2.351563-3.410157 3.234375-7.535157 2.484375-11.613282l-2.898438-15.765625c-.75-4.078125-3.042968-7.617187-6.457031-9.96875-3.410156-2.351562-7.535156-3.234375-11.613281-2.484375l-15.765625 2.898438c-4.078125.75-7.617187 3.042968-9.96875 6.457031-2.351563 3.410156-3.234375 7.535156-2.484375 11.609375l2.898438 15.769531c.75 4.074219 3.042968 7.617188 6.457031 9.96875 2.617187 1.804688 5.65625 2.746094 8.773437 2.746094.941406 0 1.890625-.085937 2.839844-.261719l15.765625-2.898437c4.078125-.75 7.617187-3.042969 9.96875-6.457031zm-12.351563-8.511719c-.121093.175781-.277343.203125-.332031.214843l-15.765625 2.898438c-.054687.011719-.210937.039062-.386718-.082031-.175782-.121094-.207032-.277344-.214844-.332031l-2.898438-15.765626c-.011718-.054687-.039062-.210937.082032-.386718.121093-.175782.277343-.207032.332031-.214844l15.765625-2.902344c.019531-.003906.054687-.007812.101562-.007812.074219 0 .175782.015625.285156.089844.175782.125.207032.28125.214844.332031l2.902344 15.769531c.007812.054688.035156.210938-.085938.386719zm0 0" fill="#000000" class=""></path><path xmlns="http://www.w3.org/2000/svg" d="m86.089844 266.75-12.691406 4.980469c-3.855469 1.515625-5.757813 5.867187-4.242188 9.722656 1.160156 2.957031 3.988281 4.761719 6.980469 4.761719.914062 0 1.839843-.167969 2.738281-.519532l12.695312-4.980468c3.851563-1.515625 5.753907-5.867188 4.238282-9.722656-1.511719-3.855469-5.863282-5.753907-9.71875-4.242188zm0 0" fill="#000000" class=""></path><path xmlns="http://www.w3.org/2000/svg" d="m172.203125 318.167969-4.675781 4.675781c-2.929688 2.929688-2.929688 7.675781 0 10.605469 1.464844 1.464843 3.382812 2.195312 5.304687 2.195312 1.917969 0 3.835938-.730469 5.300781-2.195312l4.675782-4.675781c2.929687-2.929688 2.929687-7.679688 0-10.605469-2.929688-2.929688-7.675782-2.929688-10.605469 0zm0 0" fill="#000000" class=""></path><path xmlns="http://www.w3.org/2000/svg" d="m121.875 314.265625c-2.222656-3.492187-6.855469-4.523437-10.351562-2.300781-3.496094 2.226562-4.523438 6.859375-2.300782 10.355468l4.675782 7.347657c1.429687 2.246093 3.855468 3.476562 6.335937 3.476562 1.375 0 2.769531-.378906 4.019531-1.175781 3.492188-2.222656 4.523438-6.859375 2.300782-10.351562zm0 0" fill="#000000" class=""></path><path xmlns="http://www.w3.org/2000/svg" d="m98.222656 169.785156c1.460938 1.464844 3.382813 2.199219 5.300782 2.199219 1.921874 0 3.839843-.734375 5.304687-2.199219 2.929687-2.929687 2.929687-7.675781 0-10.605468l-4.675781-4.675782c-2.929688-2.929687-7.679688-2.929687-10.605469 0-2.929687 2.929688-2.929687 7.675782 0 10.605469zm0 0" fill="#000000" class=""></path><path xmlns="http://www.w3.org/2000/svg" d="m194.550781 231.964844-5.34375 4.007812c-3.3125 2.484375-3.984375 7.1875-1.5 10.5 1.472657 1.964844 3.726563 3 6.003907 3 1.566406 0 3.148437-.488281 4.496093-1.5l5.34375-4.007812c3.3125-2.484375 3.984375-7.1875 1.5-10.5s-7.1875-3.984375-10.5-1.5zm0 0" fill="#000000" class=""></path><path xmlns="http://www.w3.org/2000/svg" d="m86.339844 349.820312c-2.695313-3.144531-7.429688-3.511718-10.574219-.816406-3.144531 2.695313-3.511719 7.429688-.816406 10.574219l4.007812 4.679687c1.484375 1.730469 3.585938 2.617188 5.699219 2.617188 1.726562 0 3.464844-.59375 4.878906-1.804688 3.144532-2.695312 3.507813-7.429687.8125-10.574218zm0 0" fill="#000000" class=""></path><path xmlns="http://www.w3.org/2000/svg" d="m138.292969 371.394531-2.503907.5c-4.0625.8125-6.695312 4.765625-5.882812 8.824219.710938 3.566406 3.84375 6.03125 7.34375 6.03125.488281 0 .984375-.046875 1.480469-.144531l2.503906-.503907c4.0625-.8125 6.695313-4.761718 5.886719-8.824218-.816406-4.0625-4.765625-6.695313-8.828125-5.882813zm0 0" fill="#000000" class=""></path></g></svg>
