<svg xmlns="http://www.w3.org/2000/svg" version="1.1"
     width="512" height="512" x="0" y="0" viewBox="0 0 32 32" style="enable-background:new 0 0 512 512" xml:space="preserve" class="">
    <g>
        <g xmlns="http://www.w3.org/2000/svg" id="Shuffle">
            <path d="M2,8A1,1,0,0,1,3,7H5.1A5,5,0,0,1,9,8.85l2.8,3.44a1,1,0,0,1-.15,1.41,1,1,0,0,1-1.41-.15l-2.8-3.44A3,3,0,0,0,5.1,9H3A1,1,0,0,1,2,8ZM29.55,23.17l-3-2a1,1,0,0,0-1-.05A1,1,0,0,0,25,22v1H21.9a3,3,0,0,1-2.32-1.11l-2.8-3.44a1,1,0,0,0-1.56,1.26L18,23.15A5,5,0,0,0,21.9,25H25v1a1,1,0,0,0,.53.88,1,1,0,0,0,1-.05l3-2a1,1,0,0,0,0-1.66ZM21.9,9H25v1a1,1,0,0,0,.53.88,1,1,0,0,0,1-.05l3-2a1,1,0,0,0,0-1.66l-3-2a1,1,0,0,0-1,0A1,1,0,0,0,25,6V7H21.9A5,5,0,0,0,18,8.85l-10.6,13A3,3,0,0,1,5.1,23H3a1,1,0,0,0,0,2H5.1A5,5,0,0,0,9,23.15l10.6-13A3,3,0,0,1,21.9,9Z"
                  fill=""/>
        </g>
    </g>
</svg>
